<svg id="Capa_1" enable-background="new 0 0 514.511 514.511" height="512" viewBox="0 0 514.511 514.511" width="512" xmlns="http://www.w3.org/2000/svg"><g><path d="m452.255 162.762v-68.251h-93.679l-101.763-94.511-100.915 94.511h-94.393v68.305l-60.25 60.5v291.195h512v-291.249zm23.14 65.202-23.14 17.451v-40.401zm-218.497-186.943 57.593 53.489h-114.706zm-165.393 83.49h330.75v143.529l-164.037 123.711-166.713-124.689zm-52.426 103.339 22.427-22.52v39.293zm-7.824 256.661v-225.05l227.037 169.81 224.963-169.66v224.9z"/><path d="m346.255 235.761c0-18.176-13.088-33.343-30.333-36.596v-30.154h-30v29.5h-14.667v-29.5h-30v29.5h-15v-29.5h-30v29.877c-18.062 2.56-32 18.115-32 36.873v58.25h182zm-30 28.25h-122v-28.25c0-3.998 3.252-7.25 7.25-7.25h107.5c3.998 0 7.25 3.252 7.25 7.25z"/></g></svg>